<svg xmlns="http://www.w3.org/2000/svg" viewBox="0 0 64 64" width="64" height="64">
  <defs>
    <linearGradient id="cg" x1="0" y1="0" x2="64" y2="64" gradientUnits="userSpaceOnUse">
      <stop offset="0%" stop-color="#F6821F"/>
      <stop offset="100%" stop-color="#DA6D14"/>
    </linearGradient>
    <linearGradient id="lg" x1="32" y1="24" x2="32" y2="50" gradientUnits="userSpaceOnUse">
      <stop offset="0%" stop-color="#14532D"/>
      <stop offset="100%" stop-color="#166534"/>
    </linearGradient>
  </defs>
  <!-- Cloud shape -->
  <path d="M50.5 44H14a8 8 0 0 1-.84-15.96A12 12 0 0 1 24.6 18.4a11 11 0 0 1 18.73 4.15A9 9 0 0 1 50.5 44z" fill="url(#cg)"/>
  <!-- Lock body -->
  <rect x="27" y="33" width="10" height="8" rx="1.8" fill="url(#lg)"/>
  <!-- Lock shackle -->
  <path d="M30 33v-3.5a2 2 0 0 1 4 0V33" fill="none" stroke="url(#lg)" stroke-width="2.2" stroke-linecap="round"/>
  <!-- Keyhole -->
  <circle cx="32" cy="36.2" r="1.3" fill="#fff" opacity=".9"/>
  <rect x="31.4" y="36.5" width="1.2" height="2.5" rx=".4" fill="#fff" opacity=".9"/>
</svg>
